# xmcd
#
# Track frame offsets:
#	150
#	16819
#	33100
#	48067
#	64935
#	82562
#	99446
#	114815
#	128425
#	142797
#	160073
#
# Disc length: 2327 seconds
#
# Revision: 1
# Processed by: cddbd v1.5.2PL0 Copyright (c) Steve Scherf et al.
# Submitted via: audiograbber 1.83.01
#
DISCID=6809150b
DTITLE=Stefanie Werger - Südwind
DYEAR=2011
DGENRE=Austro Pop
TTITLE0=Südwind
TTITLE1=Kumm ma du ham
TTITLE2=Mann oh Mann
TTITLE3=Summablues
TTITLE4=Wir
TTITLE5=Was ich will
TTITLE6=Rück die Kohle raus
TTITLE7=Auf mein' Weg
TTITLE8=Guat für mi
TTITLE9=Madagaskar
TTITLE10=Jeder Mensch hat an' Engel
EXTD=
EXTT0=
EXTT1=
EXTT2=
EXTT3=
EXTT4=
EXTT5=
EXTT6=
EXTT7=
EXTT8=
EXTT9=
EXTT10=
PLAYORDER=
